<?xml version="1.0" encoding="UTF-8"?>

    <svg
      xmlns="http://www.w3.org/2000/svg"
      width="105.333"
      height="50"
      version="1"
      viewBox="0 0 79 79"
    >
      <path
        d="M0 395V0h390v35c0 32-3 35-28 35-16 0-37 6-47 14-11 8-25 12-32 9-17-7-16 5 2 23 13 14 15 14 15-1 0-13 4-14 20-5 11 6 20 7 21 3 0-4 6 8 12 27 7 19 9 38 5 41-5 3-2 21 6 40 9 19 16 28 17 22 1-7 2-17 3-22 0-5 4-13 9-17 6-6 12 36 8 59-1 5 6 34 15 65l17 57 55 2c58 3 82-10 96-53 9-29-66-104-93-94-2 1-7-4-12-11-6-10-11-10-25 2-16 13-16 12-5-9 7-13 19-26 27-29 25-9 73 18 104 60 39 53 40 98 4 126-23 18-24 21-7 21 22 0 43 18 43 37 0 6 14 41 31 77 36 76 35 100-5 104-20 3-26 0-20-9 5-9 2-10-10-6-32 13-100-37-169-123-43-55-69-59-94-13-16 29-40 49-50 40-2-2 8-16 22-31 29-32 32-48 8-40-13 4-14 3-5-3 7-6 10-17 6-27-6-15-14-17-43-12-20 3-51 6-69 6-29 0-35 5-49 38-8 20-26 61-39 90s-24 59-24 67c0 17 36 39 50 30 6-3 10 1 10 9 0 21 18 30 35 16 11-10 15-7 21 14 5 21 9 24 19 16 10-9 14-6 17 12 3 22 19 26 81 19 4-1 7-10 7-21s4-20 8-20c12 0 9-40-3-40-5 0-2-5 8-11s20-9 22-7c1 1 6 42 9 91l6 87H0V395zm357-59c-4-10-1-13 9-9 9 3 14-1 14-12 0-10-5-13-12-9-7 5-8 3-3-6 4-7 3-15-3-19-5-3-12-15-14-26-5-28-29-55-51-55-41 0-101 55-123 113-9 26 11 21 30-8 9-14 21-25 27-25 8 0 8 4 0 14-15 18 13 30 39 16 24-13 33-13 25 0-3 6 0 10 8 10s20 7 27 15c16 19 34 20 27 1z"
        transform="matrix(.1 0 0 -.1 0 79)"
      ></path>
    </svg>